<?xml version="1.0" encoding="iso-8859-1"?>
<!-- Generator: Adobe Illustrator 19.0.0, SVG Export Plug-In . SVG Version: 6.00 Build 0)  -->
<svg version="1.1" id="Capa_1" xmlns="http://www.w3.org/2000/svg" xmlns:xlink="http://www.w3.org/1999/xlink" x="0px" y="0px"
	 viewBox="0 0 512 512" style="enable-background:new 0 0 512 512;" xml:space="preserve">
<g>
	<g>
		<path d="M426.259,146.768L378.507,102H386c8.284,0,15-6.716,15-15V15c0-8.284-6.716-15-15-15H126c-8.284,0-15,6.716-15,15v72
			c0,8.284,6.716,15,15,15h7.493l-47.752,44.768C82.716,149.604,81,153.564,81,157.711V467c0,24.813,20.187,45,45,45h260
			c24.813,0,45-20.187,45-45V157.711C431,153.564,429.284,149.604,426.259,146.768z M181,412.355c0,8.284-6.716,15-15,15
			s-15-6.716-15-15v-200c0-8.284,6.716-15,15-15s15,6.716,15,15V412.355z M361,412.355c0,8.284-6.716,15-15,15s-15-6.716-15-15v-200
			c0-8.284,6.716-15,15-15s15,6.716,15,15V412.355z"/>
	</g>
</g>
<g>
</g>
<g>
</g>
<g>
</g>
<g>
</g>
<g>
</g>
<g>
</g>
<g>
</g>
<g>
</g>
<g>
</g>
<g>
</g>
<g>
</g>
<g>
</g>
<g>
</g>
<g>
</g>
<g>
</g>
</svg>
